<?xml version="1.0" encoding="UTF-8"?> <svg xmlns="http://www.w3.org/2000/svg" width="286" height="107" viewBox="0 0 286 107" fill="none"><g clip-path="url(#clip0_107_458)"><path d="M4.51445 26.1437L0.000854492 27.6102L15.1878 74.5152L19.7014 73.0488L4.51445 26.1437Z" fill="url(#paint0_linear_107_458)"></path><path d="M9.92617 3.44019L5.34558 4.68085L22.1121 66.7987L26.6927 65.558L9.92617 3.44019Z" fill="url(#paint1_linear_107_458)"></path><path d="M25.4499 11.7665L20.8253 12.8309L36.963 83.1882L41.5876 82.1238L25.4499 11.7665Z" fill="url(#paint2_linear_107_458)"></path><path d="M33.666 -0.00275412L29.0611 1.14395L55.3288 106.995L59.9338 105.849L33.666 -0.00275412Z" fill="url(#paint3_linear_107_458)"></path><path d="M55.4652 43.9246L50.9276 45.3204L62.0022 81.4487L66.5398 80.053L55.4652 43.9246Z" fill="url(#paint4_linear_107_458)"></path><path d="M56.0974 8.76094L51.5554 10.1364L72.1181 78.2755L76.6602 76.9001L56.0974 8.76094Z" fill="url(#paint5_linear_107_458)"></path><path d="M75.7289 43.037L71.1559 44.3117L81.2801 80.758L85.8531 79.4833L75.7289 43.037Z" fill="url(#paint6_linear_107_458)"></path><path d="M77.6249 18.308L73.0566 19.5995L87.6103 71.2581L92.1786 69.9666L77.6249 18.308Z" fill="url(#paint7_linear_107_458)"></path><path d="M87.1259 5.99125L82.533 7.18539L97.7241 65.816L102.317 64.6219L87.1259 5.99125Z" fill="url(#paint8_linear_107_458)"></path></g><path d="M119.8 63V46.008H123.304L131.152 57.504V46.008H134.584V63H131.176L123.232 51.624V63H119.8ZM143.599 63.168C142.319 63.168 141.199 62.912 140.239 62.4C139.279 61.872 138.535 61.128 138.007 60.168C137.479 59.192 137.215 58.04 137.215 56.712C137.215 55.352 137.479 54.184 138.007 53.208C138.551 52.216 139.303 51.456 140.263 50.928C141.223 50.4 142.327 50.136 143.575 50.136C144.855 50.136 145.967 50.408 146.911 50.952C147.855 51.496 148.591 52.256 149.119 53.232C149.647 54.208 149.911 55.376 149.911 56.736C149.911 58.064 149.647 59.216 149.119 60.192C148.607 61.152 147.879 61.888 146.935 62.4C146.007 62.912 144.895 63.168 143.599 63.168ZM143.551 60.096C144.287 60.096 144.879 59.936 145.327 59.616C145.775 59.296 146.095 58.88 146.287 58.368C146.495 57.84 146.599 57.288 146.599 56.712C146.599 56.136 146.495 55.584 146.287 55.056C146.095 54.528 145.775 54.096 145.327 53.76C144.895 53.408 144.303 53.232 143.551 53.232C142.831 53.232 142.247 53.408 141.799 53.76C141.351 54.096 141.023 54.528 140.815 55.056C140.623 55.584 140.527 56.136 140.527 56.712C140.527 57.304 140.623 57.856 140.815 58.368C141.023 58.88 141.351 59.296 141.799 59.616C142.247 59.936 142.831 60.096 143.551 60.096ZM152.062 63V50.352H155.086L155.302 51.864C155.622 51.384 155.982 51.024 156.382 50.784C156.782 50.528 157.198 50.36 157.63 50.28C158.062 50.184 158.502 50.136 158.95 50.136C159.158 50.136 159.35 50.144 159.526 50.16C159.702 50.16 159.83 50.16 159.91 50.16V53.4H159.118C158.366 53.4 157.71 53.528 157.15 53.784C156.59 54.04 156.158 54.44 155.854 54.984C155.566 55.528 155.422 56.224 155.422 57.072V63H152.062ZM166.458 63.168C165.178 63.168 164.114 62.88 163.266 62.304C162.434 61.712 161.81 60.928 161.394 59.952C160.978 58.96 160.77 57.864 160.77 56.664C160.77 55.4 160.994 54.28 161.442 53.304C161.89 52.312 162.554 51.536 163.434 50.976C164.314 50.416 165.41 50.136 166.722 50.136C167.17 50.136 167.61 50.192 168.042 50.304C168.49 50.4 168.898 50.552 169.266 50.76C169.65 50.952 169.978 51.208 170.25 51.528V46.008H173.61V63H170.346L170.298 61.584C170.01 61.952 169.658 62.256 169.242 62.496C168.842 62.72 168.41 62.888 167.946 63C167.482 63.112 166.986 63.168 166.458 63.168ZM167.13 60.144C167.85 60.144 168.434 59.976 168.882 59.64C169.346 59.304 169.69 58.872 169.914 58.344C170.138 57.816 170.25 57.248 170.25 56.64C170.25 56.016 170.138 55.448 169.914 54.936C169.706 54.408 169.37 53.992 168.906 53.688C168.458 53.368 167.866 53.208 167.13 53.208C166.394 53.208 165.802 53.376 165.354 53.712C164.906 54.048 164.586 54.488 164.394 55.032C164.218 55.56 164.13 56.128 164.13 56.736C164.13 57.184 164.178 57.616 164.274 58.032C164.386 58.432 164.562 58.792 164.802 59.112C165.042 59.432 165.354 59.688 165.738 59.88C166.122 60.056 166.586 60.144 167.13 60.144ZM184.569 63L180.417 46.008H184.233L187.209 59.232L190.209 46.008H194.745L197.697 59.232L200.601 46.008H204.225L200.121 63H195.369L192.393 50.136L189.465 63H184.569ZM211.471 63.168C210.143 63.168 209.015 62.904 208.087 62.376C207.159 61.848 206.447 61.104 205.951 60.144C205.455 59.168 205.207 58.032 205.207 56.736C205.207 55.424 205.463 54.28 205.975 53.304C206.487 52.312 207.207 51.536 208.135 50.976C209.079 50.416 210.191 50.136 211.471 50.136C212.431 50.136 213.271 50.296 213.991 50.616C214.727 50.936 215.343 51.384 215.839 51.96C216.351 52.536 216.727 53.208 216.967 53.976C217.223 54.728 217.343 55.544 217.327 56.424C217.327 56.648 217.319 56.864 217.303 57.072C217.287 57.28 217.255 57.488 217.207 57.696H208.543C208.591 58.176 208.727 58.616 208.951 59.016C209.175 59.416 209.487 59.736 209.887 59.976C210.303 60.2 210.815 60.312 211.423 60.312C211.823 60.312 212.191 60.272 212.527 60.192C212.863 60.096 213.151 59.952 213.391 59.76C213.631 59.568 213.799 59.344 213.895 59.088H217.207C216.999 60.032 216.607 60.808 216.031 61.416C215.471 62.024 214.791 62.472 213.991 62.76C213.191 63.032 212.351 63.168 211.471 63.168ZM208.615 55.344H214.111C214.095 54.912 213.983 54.512 213.775 54.144C213.583 53.76 213.287 53.456 212.887 53.232C212.503 52.992 212.007 52.872 211.399 52.872C210.791 52.872 210.279 52.992 209.863 53.232C209.463 53.472 209.159 53.784 208.951 54.168C208.759 54.536 208.647 54.928 208.615 55.344ZM226.692 63.168C226.276 63.168 225.836 63.128 225.372 63.048C224.924 62.968 224.476 62.816 224.028 62.592C223.596 62.352 223.188 62.016 222.804 61.584L222.78 63H219.492V46.008H222.852V51.84C223.332 51.264 223.924 50.84 224.628 50.568C225.348 50.28 226.092 50.136 226.86 50.136C228.108 50.136 229.132 50.424 229.932 51C230.732 51.56 231.324 52.328 231.708 53.304C232.108 54.28 232.308 55.4 232.308 56.664C232.308 57.896 232.108 59.008 231.708 60C231.308 60.976 230.692 61.752 229.86 62.328C229.044 62.888 227.988 63.168 226.692 63.168ZM225.972 60.168C226.756 60.168 227.364 59.992 227.796 59.64C228.228 59.288 228.532 58.84 228.708 58.296C228.884 57.752 228.972 57.184 228.972 56.592C228.972 56 228.876 55.448 228.684 54.936C228.492 54.408 228.172 53.992 227.724 53.688C227.292 53.368 226.708 53.208 225.972 53.208C225.3 53.208 224.724 53.376 224.244 53.712C223.78 54.032 223.428 54.456 223.188 54.984C222.948 55.512 222.828 56.08 222.828 56.688C222.828 57.296 222.932 57.872 223.14 58.416C223.364 58.944 223.708 59.368 224.172 59.688C224.636 60.008 225.236 60.168 225.972 60.168ZM241.722 63V46.008H248.13C249.906 46.008 251.418 46.344 252.666 47.016C253.93 47.688 254.89 48.656 255.546 49.92C256.218 51.184 256.554 52.728 256.554 54.552C256.554 56.344 256.226 57.872 255.57 59.136C254.93 60.384 253.986 61.344 252.738 62.016C251.49 62.672 249.962 63 248.154 63H241.722ZM245.154 59.832H248.13C249.314 59.832 250.266 59.608 250.986 59.16C251.706 58.712 252.234 58.088 252.57 57.288C252.906 56.488 253.074 55.568 253.074 54.528C253.074 53.52 252.906 52.616 252.57 51.816C252.25 51 251.722 50.36 250.986 49.896C250.266 49.432 249.29 49.2 248.058 49.2H245.154V59.832ZM264.509 63.168C262.653 63.168 261.221 62.696 260.213 61.752C259.221 60.792 258.725 59.352 258.725 57.432V50.352H262.085V57.192C262.085 57.768 262.165 58.28 262.325 58.728C262.501 59.16 262.765 59.504 263.117 59.76C263.485 60.016 263.957 60.144 264.533 60.144C265.157 60.144 265.637 60.008 265.973 59.736C266.309 59.464 266.541 59.104 266.669 58.656C266.797 58.192 266.861 57.704 266.861 57.192V50.352H270.197V57.432C270.197 59.432 269.693 60.888 268.685 61.8C267.693 62.712 266.301 63.168 264.509 63.168ZM278.716 63.168C277.436 63.168 276.316 62.912 275.356 62.4C274.396 61.872 273.652 61.128 273.124 60.168C272.596 59.192 272.332 58.04 272.332 56.712C272.332 55.352 272.596 54.184 273.124 53.208C273.668 52.216 274.42 51.456 275.38 50.928C276.34 50.4 277.444 50.136 278.692 50.136C279.972 50.136 281.084 50.408 282.028 50.952C282.972 51.496 283.708 52.256 284.236 53.232C284.764 54.208 285.028 55.376 285.028 56.736C285.028 58.064 284.764 59.216 284.236 60.192C283.724 61.152 282.996 61.888 282.052 62.4C281.124 62.912 280.012 63.168 278.716 63.168ZM278.668 60.096C279.404 60.096 279.996 59.936 280.444 59.616C280.892 59.296 281.212 58.88 281.404 58.368C281.612 57.84 281.716 57.288 281.716 56.712C281.716 56.136 281.612 55.584 281.404 55.056C281.212 54.528 280.892 54.096 280.444 53.76C280.012 53.408 279.42 53.232 278.668 53.232C277.948 53.232 277.364 53.408 276.916 53.76C276.468 54.096 276.14 54.528 275.932 55.056C275.74 55.584 275.644 56.136 275.644 56.712C275.644 57.304 275.74 57.856 275.932 58.368C276.14 58.88 276.468 59.296 276.916 59.616C277.364 59.936 277.948 60.096 278.668 60.096Z" fill="#55E6A5"></path><defs><linearGradient id="paint0_linear_107_458" x1="9.84975" y1="26.144" x2="9.84975" y2="74.5157" gradientUnits="userSpaceOnUse"><stop stop-opacity="0"></stop><stop offset="0.53" stop-color="#00C96F"></stop><stop offset="0.91" stop-color="#55E6A5"></stop></linearGradient><linearGradient id="paint1_linear_107_458" x1="16.0198" y1="3.43944" x2="16.0198" y2="66.7981" gradientUnits="userSpaceOnUse"><stop stop-opacity="0"></stop><stop offset="0.53" stop-color="#00C96F"></stop><stop offset="0.91" stop-color="#55E6A5"></stop></linearGradient><linearGradient id="paint2_linear_107_458" x1="31.2047" y1="11.7668" x2="31.2047" y2="83.1893" gradientUnits="userSpaceOnUse"><stop stop-opacity="0"></stop><stop offset="0.53" stop-color="#00C96F"></stop><stop offset="0.91" stop-color="#55E6A5"></stop></linearGradient><linearGradient id="paint3_linear_107_458" x1="44.4921" y1="-0.00105613" x2="44.4921" y2="106.999" gradientUnits="userSpaceOnUse"><stop stop-opacity="0"></stop><stop offset="0.53" stop-color="#00C96F"></stop><stop offset="0.91" stop-color="#55E6A5"></stop></linearGradient><linearGradient id="paint4_linear_107_458" x1="58.7306" y1="43.9273" x2="58.7306" y2="81.4515" gradientUnits="userSpaceOnUse"><stop stop-opacity="0"></stop><stop offset="0.53" stop-color="#00C96F"></stop><stop offset="0.91" stop-color="#55E6A5"></stop></linearGradient><linearGradient id="paint5_linear_107_458" x1="64.1105" y1="8.75845" x2="64.1105" y2="78.2721" gradientUnits="userSpaceOnUse"><stop stop-opacity="0"></stop><stop offset="0.53" stop-color="#00C96F"></stop><stop offset="0.91" stop-color="#55E6A5"></stop></linearGradient><linearGradient id="paint6_linear_107_458" x1="78.5026" y1="43.0363" x2="78.5026" y2="80.7574" gradientUnits="userSpaceOnUse"><stop stop-opacity="0"></stop><stop offset="0.53" stop-color="#00C96F"></stop><stop offset="0.91" stop-color="#55E6A5"></stop></linearGradient><linearGradient id="paint7_linear_107_458" x1="82.6163" y1="18.3085" x2="82.6163" y2="71.2595" gradientUnits="userSpaceOnUse"><stop stop-opacity="0"></stop><stop offset="0.53" stop-color="#00C96F"></stop><stop offset="0.91" stop-color="#55E6A5"></stop></linearGradient><linearGradient id="paint8_linear_107_458" x1="92.4225" y1="5.99767" x2="92.4225" y2="65.8225" gradientUnits="userSpaceOnUse"><stop stop-opacity="0"></stop><stop offset="0.53" stop-color="#00C96F"></stop><stop offset="0.91" stop-color="#55E6A5"></stop></linearGradient><clipPath id="clip0_107_458"><rect width="126" height="107" fill="white"></rect></clipPath></defs></svg> 