<svg width="1010" height="646" viewBox="0 0 1010 646" fill="none" xmlns="http://www.w3.org/2000/svg">
<g clip-path="url(#clip0_49_2)">
<mask id="mask0_49_2" style="mask-type:luminance" maskUnits="userSpaceOnUse" x="0" y="-49" width="1010" height="646">
<path d="M1010 -49H0V597H1010V-49Z" fill="white"/>
</mask>
<g mask="url(#mask0_49_2)">
<path d="M48.0954 -0.934387H0V47.1312H48.0954V-0.934387Z" stroke="white" stroke-opacity="0.06" stroke-width="0.238095"/>
<path d="M96.1907 -0.934387H48.0953V47.1312H96.1907V-0.934387Z" stroke="white" stroke-opacity="0.06" stroke-width="0.238095"/>
<path d="M144.286 -0.934387H96.1908V47.1312H144.286V-0.934387Z" fill="white" fill-opacity="0.05" stroke="white" stroke-opacity="0.06" stroke-width="0.238095"/>
<path d="M192.381 -0.934387H144.285V47.1312H192.381V-0.934387Z" stroke="white" stroke-opacity="0.06" stroke-width="0.238095"/>
<path d="M240.476 -0.934387H192.381V47.1312H240.476V-0.934387Z" stroke="white" stroke-opacity="0.06" stroke-width="0.238095"/>
<path d="M288.572 -0.934387H240.476V47.1312H288.572V-0.934387Z" stroke="white" stroke-opacity="0.06" stroke-width="0.238095"/>
<path d="M336.667 -0.934387H288.572V47.1312H336.667V-0.934387Z" stroke="white" stroke-opacity="0.06" stroke-width="0.238095"/>
<path d="M384.762 -0.934387H336.667V47.1312H384.762V-0.934387Z" stroke="white" stroke-opacity="0.06" stroke-width="0.238095"/>
<path d="M432.857 -0.934387H384.761V47.1312H432.857V-0.934387Z" stroke="white" stroke-opacity="0.06" stroke-width="0.238095"/>
<path d="M480.953 -0.934387H432.858V47.1312H480.953V-0.934387Z" fill="white" fill-opacity="0.05" stroke="white" stroke-opacity="0.06" stroke-width="0.238095"/>
<path d="M529.049 -0.934387H480.954V47.1312H529.049V-0.934387Z" stroke="white" stroke-opacity="0.06" stroke-width="0.238095"/>
<path d="M577.141 -0.934387H529.046V47.1312H577.141V-0.934387Z" stroke="white" stroke-opacity="0.06" stroke-width="0.238095"/>
<path d="M625.238 -0.934387H577.142V47.1312H625.238V-0.934387Z" stroke="white" stroke-opacity="0.06" stroke-width="0.238095"/>
<path d="M673.334 -0.934387H625.238V47.1312H673.334V-0.934387Z" stroke="white" stroke-opacity="0.06" stroke-width="0.238095"/>
<path d="M721.43 -0.934387H673.335V47.1312H721.43V-0.934387Z" stroke="white" stroke-opacity="0.06" stroke-width="0.238095"/>
<path d="M769.522 -0.934387H721.427V47.1312H769.522V-0.934387Z" stroke="white" stroke-opacity="0.06" stroke-width="0.238095"/>
<path d="M817.618 -0.934387H769.523V47.1312H817.618V-0.934387Z" stroke="white" stroke-opacity="0.06" stroke-width="0.238095"/>
<path d="M865.715 -0.934387H817.619V47.1312H865.715V-0.934387Z" stroke="white" stroke-opacity="0.06" stroke-width="0.238095"/>
<path d="M913.811 -0.934387H865.715V47.1312H913.811V-0.934387Z" stroke="white" stroke-opacity="0.06" stroke-width="0.238095"/>
<path d="M961.903 -0.934387H913.808V47.1312H961.903V-0.934387Z" stroke="white" stroke-opacity="0.06" stroke-width="0.238095"/>
<path d="M1010 -0.934387H961.904V47.1312H1010V-0.934387Z" stroke="white" stroke-opacity="0.06" stroke-width="0.238095"/>
<path d="M48.0954 47.1309H0V95.1965H48.0954V47.1309Z" stroke="white" stroke-opacity="0.06" stroke-width="0.238095"/>
<path d="M96.1907 47.1309H48.0953V95.1965H96.1907V47.1309Z" stroke="white" stroke-opacity="0.06" stroke-width="0.238095"/>
<path d="M144.286 47.1309H96.1908V95.1965H144.286V47.1309Z" stroke="white" stroke-opacity="0.06" stroke-width="0.238095"/>
<path d="M192.381 47.1309H144.285V95.1965H192.381V47.1309Z" stroke="white" stroke-opacity="0.06" stroke-width="0.238095"/>
<path d="M240.476 47.1309H192.381V95.1965H240.476V47.1309Z" stroke="white" stroke-opacity="0.06" stroke-width="0.238095"/>
<path d="M288.572 47.1309H240.476V95.1965H288.572V47.1309Z" stroke="white" stroke-opacity="0.06" stroke-width="0.238095"/>
<path d="M336.667 47.1309H288.572V95.1965H336.667V47.1309Z" stroke="white" stroke-opacity="0.06" stroke-width="0.238095"/>
<path d="M384.762 47.1309H336.667V95.1965H384.762V47.1309Z" stroke="white" stroke-opacity="0.06" stroke-width="0.238095"/>
<path d="M432.857 47.1309H384.761V95.1965H432.857V47.1309Z" stroke="white" stroke-opacity="0.06" stroke-width="0.238095"/>
<path d="M480.953 47.1309H432.858V95.1965H480.953V47.1309Z" stroke="white" stroke-opacity="0.06" stroke-width="0.238095"/>
<path d="M529.049 47.1309H480.954V95.1965H529.049V47.1309Z" stroke="white" stroke-opacity="0.06" stroke-width="0.238095"/>
<path d="M577.141 47.1309H529.046V95.1965H577.141V47.1309Z" stroke="white" stroke-opacity="0.06" stroke-width="0.238095"/>
<path d="M625.238 47.1309H577.142V95.1965H625.238V47.1309Z" stroke="white" stroke-opacity="0.06" stroke-width="0.238095"/>
<path d="M673.334 47.1309H625.238V95.1965H673.334V47.1309Z" stroke="white" stroke-opacity="0.06" stroke-width="0.238095"/>
<path d="M721.43 47.1309H673.335V95.1965H721.43V47.1309Z" stroke="white" stroke-opacity="0.06" stroke-width="0.238095"/>
<path d="M769.522 47.1309H721.427V95.1965H769.522V47.1309Z" stroke="white" stroke-opacity="0.06" stroke-width="0.238095"/>
<path d="M817.618 47.1309H769.523V95.1965H817.618V47.1309Z" fill="white" fill-opacity="0.05" stroke="white" stroke-opacity="0.06" stroke-width="0.238095"/>
<path d="M865.715 47.1309H817.619V95.1965H865.715V47.1309Z" stroke="white" stroke-opacity="0.06" stroke-width="0.238095"/>
<path d="M913.811 47.1309H865.715V95.1965H913.811V47.1309Z" stroke="white" stroke-opacity="0.06" stroke-width="0.238095"/>
<path d="M961.903 47.1309H913.808V95.1965H961.903V47.1309Z" stroke="white" stroke-opacity="0.06" stroke-width="0.238095"/>
<path d="M1010 47.1309H961.904V95.1965H1010V47.1309Z" stroke="white" stroke-opacity="0.06" stroke-width="0.238095"/>
<path d="M48.0954 95.1965H0V143.262H48.0954V95.1965Z" stroke="white" stroke-opacity="0.06" stroke-width="0.238095"/>
<path d="M96.1907 95.1965H48.0953V143.262H96.1907V95.1965Z" stroke="white" stroke-opacity="0.06" stroke-width="0.238095"/>
<path d="M144.286 95.1965H96.1908V143.262H144.286V95.1965Z" stroke="white" stroke-opacity="0.06" stroke-width="0.238095"/>
<path d="M192.381 95.1965H144.285V143.262H192.381V95.1965Z" stroke="white" stroke-opacity="0.06" stroke-width="0.238095"/>
<path d="M240.476 95.1965H192.381V143.262H240.476V95.1965Z" stroke="white" stroke-opacity="0.06" stroke-width="0.238095"/>
<path d="M288.572 95.1965H240.476V143.262H288.572V95.1965Z" stroke="white" stroke-opacity="0.06" stroke-width="0.238095"/>
<path d="M336.667 95.1965H288.572V143.262H336.667V95.1965Z" stroke="white" stroke-opacity="0.06" stroke-width="0.238095"/>
<path d="M384.762 95.1965H336.667V143.262H384.762V95.1965Z" stroke="white" stroke-opacity="0.06" stroke-width="0.238095"/>
<path d="M432.857 95.1965H384.761V143.262H432.857V95.1965Z" stroke="white" stroke-opacity="0.06" stroke-width="0.238095"/>
<path d="M480.953 95.1965H432.858V143.262H480.953V95.1965Z" stroke="white" stroke-opacity="0.06" stroke-width="0.238095"/>
<path d="M529.049 95.1965H480.954V143.262H529.049V95.1965Z" stroke="white" stroke-opacity="0.06" stroke-width="0.238095"/>
<path d="M577.141 95.1965H529.046V143.262H577.141V95.1965Z" stroke="white" stroke-opacity="0.06" stroke-width="0.238095"/>
<path d="M625.238 95.1965H577.142V143.262H625.238V95.1965Z" stroke="white" stroke-opacity="0.06" stroke-width="0.238095"/>
<path d="M673.334 95.1965H625.238V143.262H673.334V95.1965Z" stroke="white" stroke-opacity="0.06" stroke-width="0.238095"/>
<path d="M721.43 95.1965H673.335V143.262H721.43V95.1965Z" stroke="white" stroke-opacity="0.06" stroke-width="0.238095"/>
<path d="M769.522 95.1965H721.427V143.262H769.522V95.1965Z" stroke="white" stroke-opacity="0.06" stroke-width="0.238095"/>
<path d="M817.618 95.1965H769.523V143.262H817.618V95.1965Z" stroke="white" stroke-opacity="0.06" stroke-width="0.238095"/>
<path d="M865.715 95.1965H817.619V143.262H865.715V95.1965Z" stroke="white" stroke-opacity="0.06" stroke-width="0.238095"/>
<path d="M913.811 95.1965H865.715V143.262H913.811V95.1965Z" stroke="white" stroke-opacity="0.06" stroke-width="0.238095"/>
<path d="M961.903 95.1965H913.808V143.262H961.903V95.1965Z" stroke="white" stroke-opacity="0.06" stroke-width="0.238095"/>
<path d="M1010 95.1965H961.904V143.262H1010V95.1965Z" stroke="white" stroke-opacity="0.06" stroke-width="0.238095"/>
<path d="M48.0954 143.262H0V191.327H48.0954V143.262Z" stroke="white" stroke-opacity="0.06" stroke-width="0.238095"/>
<path d="M96.1907 143.262H48.0953V191.327H96.1907V143.262Z" stroke="white" stroke-opacity="0.06" stroke-width="0.238095"/>
<path d="M144.286 143.262H96.1908V191.327H144.286V143.262Z" stroke="white" stroke-opacity="0.06" stroke-width="0.238095"/>
<path d="M192.381 143.262H144.285V191.327H192.381V143.262Z" fill="white" fill-opacity="0.05" stroke="white" stroke-opacity="0.06" stroke-width="0.238095"/>
<path d="M240.476 143.262H192.381V191.327H240.476V143.262Z" stroke="white" stroke-opacity="0.06" stroke-width="0.238095"/>
<path d="M288.572 143.262H240.476V191.327H288.572V143.262Z" stroke="white" stroke-opacity="0.06" stroke-width="0.238095"/>
<path d="M336.667 143.262H288.572V191.327H336.667V143.262Z" stroke="white" stroke-opacity="0.06" stroke-width="0.238095"/>
<path d="M384.762 143.262H336.667V191.327H384.762V143.262Z" stroke="white" stroke-opacity="0.06" stroke-width="0.238095"/>
<path d="M432.857 143.262H384.761V191.327H432.857V143.262Z" stroke="white" stroke-opacity="0.06" stroke-width="0.238095"/>
<path d="M480.953 143.262H432.858V191.327H480.953V143.262Z" stroke="white" stroke-opacity="0.06" stroke-width="0.238095"/>
<path d="M529.049 143.262H480.954V191.327H529.049V143.262Z" stroke="white" stroke-opacity="0.06" stroke-width="0.238095"/>
<path d="M577.141 143.262H529.046V191.327H577.141V143.262Z" stroke="white" stroke-opacity="0.06" stroke-width="0.238095"/>
<path d="M625.238 143.262H577.142V191.327H625.238V143.262Z" fill="white" fill-opacity="0.05" stroke="white" stroke-opacity="0.06" stroke-width="0.238095"/>
<path d="M673.334 143.262H625.238V191.327H673.334V143.262Z" stroke="white" stroke-opacity="0.06" stroke-width="0.238095"/>
<path d="M721.43 143.262H673.335V191.327H721.43V143.262Z" stroke="white" stroke-opacity="0.06" stroke-width="0.238095"/>
<path d="M769.522 143.262H721.427V191.327H769.522V143.262Z" stroke="white" stroke-opacity="0.06" stroke-width="0.238095"/>
<path d="M817.618 143.262H769.523V191.327H817.618V143.262Z" stroke="white" stroke-opacity="0.06" stroke-width="0.238095"/>
<path d="M865.715 143.262H817.619V191.327H865.715V143.262Z" stroke="white" stroke-opacity="0.06" stroke-width="0.238095"/>
<path d="M913.811 143.262H865.715V191.327H913.811V143.262Z" stroke="white" stroke-opacity="0.06" stroke-width="0.238095"/>
<path d="M961.903 143.262H913.808V191.327H961.903V143.262Z" stroke="white" stroke-opacity="0.06" stroke-width="0.238095"/>
<path d="M1010 143.262H961.904V191.327H1010V143.262Z" stroke="white" stroke-opacity="0.06" stroke-width="0.238095"/>
<path d="M48.0954 191.327H0V239.393H48.0954V191.327Z" stroke="white" stroke-opacity="0.06" stroke-width="0.238095"/>
<path d="M96.1907 191.327H48.0953V239.393H96.1907V191.327Z" stroke="white" stroke-opacity="0.06" stroke-width="0.238095"/>
<path d="M144.286 191.327H96.1908V239.393H144.286V191.327Z" stroke="white" stroke-opacity="0.06" stroke-width="0.238095"/>
<path d="M192.381 191.327H144.285V239.393H192.381V191.327Z" stroke="white" stroke-opacity="0.06" stroke-width="0.238095"/>
<path d="M240.476 191.327H192.381V239.393H240.476V191.327Z" stroke="white" stroke-opacity="0.06" stroke-width="0.238095"/>
<path d="M288.572 191.327H240.476V239.393H288.572V191.327Z" stroke="white" stroke-opacity="0.06" stroke-width="0.238095"/>
<path d="M336.667 191.327H288.572V239.393H336.667V191.327Z" stroke="white" stroke-opacity="0.06" stroke-width="0.238095"/>
<path d="M384.762 191.327H336.667V239.393H384.762V191.327Z" stroke="white" stroke-opacity="0.06" stroke-width="0.238095"/>
<path d="M432.857 191.327H384.761V239.393H432.857V191.327Z" stroke="white" stroke-opacity="0.06" stroke-width="0.238095"/>
<path d="M480.953 191.327H432.858V239.393H480.953V191.327Z" stroke="white" stroke-opacity="0.06" stroke-width="0.238095"/>
<path d="M529.049 191.327H480.954V239.393H529.049V191.327Z" stroke="white" stroke-opacity="0.06" stroke-width="0.238095"/>
<path d="M577.141 191.327H529.046V239.393H577.141V191.327Z" stroke="white" stroke-opacity="0.06" stroke-width="0.238095"/>
<path d="M625.238 191.327H577.142V239.393H625.238V191.327Z" stroke="white" stroke-opacity="0.06" stroke-width="0.238095"/>
<path d="M673.334 191.327H625.238V239.393H673.334V191.327Z" stroke="white" stroke-opacity="0.06" stroke-width="0.238095"/>
<path d="M721.43 191.327H673.335V239.393H721.43V191.327Z" stroke="white" stroke-opacity="0.06" stroke-width="0.238095"/>
<path d="M769.522 191.327H721.427V239.393H769.522V191.327Z" stroke="white" stroke-opacity="0.06" stroke-width="0.238095"/>
<path d="M817.618 191.327H769.523V239.393H817.618V191.327Z" stroke="white" stroke-opacity="0.06" stroke-width="0.238095"/>
<path d="M865.715 191.327H817.619V239.393H865.715V191.327Z" stroke="white" stroke-opacity="0.06" stroke-width="0.238095"/>
<path d="M913.811 191.327H865.715V239.393H913.811V191.327Z" fill="white" fill-opacity="0.05" stroke="white" stroke-opacity="0.06" stroke-width="0.238095"/>
<path d="M961.903 191.327H913.808V239.393H961.903V191.327Z" stroke="white" stroke-opacity="0.06" stroke-width="0.238095"/>
<path d="M1010 191.327H961.904V239.393H1010V191.327Z" stroke="white" stroke-opacity="0.06" stroke-width="0.238095"/>
<path d="M48.0954 239.393H0V287.459H48.0954V239.393Z" stroke="white" stroke-opacity="0.06" stroke-width="0.238095"/>
<path d="M96.1907 239.393H48.0953V287.459H96.1907V239.393Z" stroke="white" stroke-opacity="0.06" stroke-width="0.238095"/>
<path d="M144.286 239.393H96.1908V287.459H144.286V239.393Z" stroke="white" stroke-opacity="0.06" stroke-width="0.238095"/>
<path d="M192.381 239.393H144.285V287.459H192.381V239.393Z" stroke="white" stroke-opacity="0.06" stroke-width="0.238095"/>
<path d="M240.476 239.393H192.381V287.459H240.476V239.393Z" stroke="white" stroke-opacity="0.06" stroke-width="0.238095"/>
<path d="M288.572 239.393H240.476V287.459H288.572V239.393Z" stroke="white" stroke-opacity="0.06" stroke-width="0.238095"/>
<path d="M336.667 239.393H288.572V287.459H336.667V239.393Z" stroke="white" stroke-opacity="0.06" stroke-width="0.238095"/>
<path d="M384.762 239.393H336.667V287.459H384.762V239.393Z" stroke="white" stroke-opacity="0.06" stroke-width="0.238095"/>
<path d="M432.857 239.393H384.761V287.459H432.857V239.393Z" stroke="white" stroke-opacity="0.06" stroke-width="0.238095"/>
<path d="M480.953 239.393H432.858V287.459H480.953V239.393Z" stroke="white" stroke-opacity="0.06" stroke-width="0.238095"/>
<path d="M529.049 239.393H480.954V287.459H529.049V239.393Z" stroke="white" stroke-opacity="0.06" stroke-width="0.238095"/>
<path d="M577.141 239.393H529.046V287.459H577.141V239.393Z" stroke="white" stroke-opacity="0.06" stroke-width="0.238095"/>
<path d="M625.238 239.393H577.142V287.459H625.238V239.393Z" stroke="white" stroke-opacity="0.06" stroke-width="0.238095"/>
<path d="M673.334 239.393H625.238V287.459H673.334V239.393Z" stroke="white" stroke-opacity="0.06" stroke-width="0.238095"/>
<path d="M721.43 239.393H673.335V287.459H721.43V239.393Z" stroke="white" stroke-opacity="0.06" stroke-width="0.238095"/>
<path d="M769.522 239.393H721.427V287.459H769.522V239.393Z" stroke="white" stroke-opacity="0.06" stroke-width="0.238095"/>
<path d="M817.618 239.393H769.523V287.459H817.618V239.393Z" stroke="white" stroke-opacity="0.06" stroke-width="0.238095"/>
<path d="M865.715 239.393H817.619V287.459H865.715V239.393Z" stroke="white" stroke-opacity="0.06" stroke-width="0.238095"/>
<path d="M913.811 239.393H865.715V287.459H913.811V239.393Z" stroke="white" stroke-opacity="0.06" stroke-width="0.238095"/>
<path d="M961.903 239.393H913.808V287.459H961.903V239.393Z" stroke="white" stroke-opacity="0.06" stroke-width="0.238095"/>
<path d="M1010 239.393H961.904V287.459H1010V239.393Z" stroke="white" stroke-opacity="0.06" stroke-width="0.238095"/>
<path d="M48.0954 287.458H0V335.524H48.0954V287.458Z" stroke="white" stroke-opacity="0.06" stroke-width="0.238095"/>
<path d="M96.1907 287.458H48.0953V335.524H96.1907V287.458Z" stroke="white" stroke-opacity="0.06" stroke-width="0.238095"/>
<path d="M144.286 287.458H96.1908V335.524H144.286V287.458Z" stroke="white" stroke-opacity="0.06" stroke-width="0.238095"/>
<path d="M192.381 287.458H144.285V335.524H192.381V287.458Z" stroke="white" stroke-opacity="0.06" stroke-width="0.238095"/>
<path d="M240.476 287.458H192.381V335.524H240.476V287.458Z" stroke="white" stroke-opacity="0.06" stroke-width="0.238095"/>
<path d="M288.572 287.458H240.476V335.524H288.572V287.458Z" stroke="white" stroke-opacity="0.06" stroke-width="0.238095"/>
<path d="M336.667 287.458H288.572V335.524H336.667V287.458Z" stroke="white" stroke-opacity="0.06" stroke-width="0.238095"/>
<path d="M384.762 287.458H336.667V335.524H384.762V287.458Z" stroke="white" stroke-opacity="0.06" stroke-width="0.238095"/>
<path d="M432.857 287.458H384.761V335.524H432.857V287.458Z" fill="white" fill-opacity="0.05" stroke="white" stroke-opacity="0.06" stroke-width="0.238095"/>
<path d="M480.953 287.458H432.858V335.524H480.953V287.458Z" stroke="white" stroke-opacity="0.06" stroke-width="0.238095"/>
<path d="M529.049 287.458H480.954V335.524H529.049V287.458Z" stroke="white" stroke-opacity="0.06" stroke-width="0.238095"/>
<path d="M577.141 287.458H529.046V335.524H577.141V287.458Z" stroke="white" stroke-opacity="0.06" stroke-width="0.238095"/>
<path d="M625.238 287.458H577.142V335.524H625.238V287.458Z" stroke="white" stroke-opacity="0.06" stroke-width="0.238095"/>
<path d="M673.334 287.458H625.238V335.524H673.334V287.458Z" stroke="white" stroke-opacity="0.06" stroke-width="0.238095"/>
<path d="M721.43 287.458H673.335V335.524H721.43V287.458Z" stroke="white" stroke-opacity="0.06" stroke-width="0.238095"/>
<path d="M769.522 287.458H721.427V335.524H769.522V287.458Z" stroke="white" stroke-opacity="0.06" stroke-width="0.238095"/>
<path d="M817.618 287.458H769.523V335.524H817.618V287.458Z" stroke="white" stroke-opacity="0.06" stroke-width="0.238095"/>
<path d="M865.715 287.458H817.619V335.524H865.715V287.458Z" stroke="white" stroke-opacity="0.06" stroke-width="0.238095"/>
<path d="M913.811 287.458H865.715V335.524H913.811V287.458Z" stroke="white" stroke-opacity="0.06" stroke-width="0.238095"/>
<path d="M961.903 287.458H913.808V335.524H961.903V287.458Z" stroke="white" stroke-opacity="0.06" stroke-width="0.238095"/>
<path d="M1010 287.458H961.904V335.524H1010V287.458Z" stroke="white" stroke-opacity="0.06" stroke-width="0.238095"/>
<path d="M48.0954 335.524H0V383.589H48.0954V335.524Z" stroke="white" stroke-opacity="0.06" stroke-width="0.238095"/>
<path d="M96.1907 335.524H48.0953V383.589H96.1907V335.524Z" stroke="white" stroke-opacity="0.06" stroke-width="0.238095"/>
<path d="M144.286 335.524H96.1908V383.589H144.286V335.524Z" stroke="white" stroke-opacity="0.06" stroke-width="0.238095"/>
<path d="M192.381 335.524H144.285V383.589H192.381V335.524Z" stroke="white" stroke-opacity="0.06" stroke-width="0.238095"/>
<path d="M240.476 335.524H192.381V383.589H240.476V335.524Z" fill="white" fill-opacity="0.05" stroke="white" stroke-opacity="0.06" stroke-width="0.238095"/>
<path d="M288.572 335.524H240.476V383.589H288.572V335.524Z" stroke="white" stroke-opacity="0.06" stroke-width="0.238095"/>
<path d="M336.667 335.524H288.572V383.589H336.667V335.524Z" stroke="white" stroke-opacity="0.06" stroke-width="0.238095"/>
<path d="M384.762 335.524H336.667V383.589H384.762V335.524Z" stroke="white" stroke-opacity="0.06" stroke-width="0.238095"/>
<path d="M432.857 335.524H384.761V383.589H432.857V335.524Z" stroke="white" stroke-opacity="0.06" stroke-width="0.238095"/>
<path d="M480.953 335.524H432.858V383.589H480.953V335.524Z" stroke="white" stroke-opacity="0.06" stroke-width="0.238095"/>
<path d="M529.049 335.524H480.954V383.589H529.049V335.524Z" stroke="white" stroke-opacity="0.06" stroke-width="0.238095"/>
<path d="M577.141 335.524H529.046V383.589H577.141V335.524Z" stroke="white" stroke-opacity="0.06" stroke-width="0.238095"/>
<path d="M625.238 335.524H577.142V383.589H625.238V335.524Z" stroke="white" stroke-opacity="0.06" stroke-width="0.238095"/>
<path d="M673.334 335.524H625.238V383.589H673.334V335.524Z" stroke="white" stroke-opacity="0.06" stroke-width="0.238095"/>
<path d="M721.43 335.524H673.335V383.589H721.43V335.524Z" stroke="white" stroke-opacity="0.06" stroke-width="0.238095"/>
<path d="M769.522 335.524H721.427V383.589H769.522V335.524Z" stroke="white" stroke-opacity="0.06" stroke-width="0.238095"/>
<path d="M817.618 335.524H769.523V383.589H817.618V335.524Z" stroke="white" stroke-opacity="0.06" stroke-width="0.238095"/>
<path d="M865.715 335.524H817.619V383.589H865.715V335.524Z" stroke="white" stroke-opacity="0.06" stroke-width="0.238095"/>
<path d="M913.811 335.524H865.715V383.589H913.811V335.524Z" stroke="white" stroke-opacity="0.06" stroke-width="0.238095"/>
<path d="M961.903 335.524H913.808V383.589H961.903V335.524Z" stroke="white" stroke-opacity="0.06" stroke-width="0.238095"/>
<path d="M1010 335.524H961.904V383.589H1010V335.524Z" stroke="white" stroke-opacity="0.06" stroke-width="0.238095"/>
<path d="M48.0954 383.59H0V431.655H48.0954V383.59Z" stroke="white" stroke-opacity="0.06" stroke-width="0.238095"/>
<path d="M96.1907 383.59H48.0953V431.655H96.1907V383.59Z" stroke="white" stroke-opacity="0.06" stroke-width="0.238095"/>
<path d="M144.286 383.59H96.1908V431.655H144.286V383.59Z" stroke="white" stroke-opacity="0.06" stroke-width="0.238095"/>
<path d="M192.381 383.59H144.285V431.655H192.381V383.59Z" stroke="white" stroke-opacity="0.06" stroke-width="0.238095"/>
<path d="M240.476 383.59H192.381V431.655H240.476V383.59Z" stroke="white" stroke-opacity="0.06" stroke-width="0.238095"/>
<path d="M288.572 383.59H240.476V431.655H288.572V383.59Z" stroke="white" stroke-opacity="0.06" stroke-width="0.238095"/>
<path d="M336.667 383.59H288.572V431.655H336.667V383.59Z" stroke="white" stroke-opacity="0.06" stroke-width="0.238095"/>
<path d="M384.762 383.59H336.667V431.655H384.762V383.59Z" stroke="white" stroke-opacity="0.06" stroke-width="0.238095"/>
<path d="M432.857 383.59H384.761V431.655H432.857V383.59Z" stroke="white" stroke-opacity="0.06" stroke-width="0.238095"/>
<path d="M480.953 383.59H432.858V431.655H480.953V383.59Z" stroke="white" stroke-opacity="0.06" stroke-width="0.238095"/>
<path d="M529.049 383.59H480.954V431.655H529.049V383.59Z" stroke="white" stroke-opacity="0.06" stroke-width="0.238095"/>
<path d="M577.141 383.59H529.046V431.655H577.141V383.59Z" stroke="white" stroke-opacity="0.06" stroke-width="0.238095"/>
<path d="M625.238 383.59H577.142V431.655H625.238V383.59Z" stroke="white" stroke-opacity="0.06" stroke-width="0.238095"/>
<path d="M673.334 383.59H625.238V431.655H673.334V383.59Z" stroke="white" stroke-opacity="0.06" stroke-width="0.238095"/>
<path d="M721.43 383.59H673.335V431.655H721.43V383.59Z" stroke="white" stroke-opacity="0.06" stroke-width="0.238095"/>
<path d="M769.522 383.59H721.427V431.655H769.522V383.59Z" stroke="white" stroke-opacity="0.06" stroke-width="0.238095"/>
<path d="M817.618 383.59H769.523V431.655H817.618V383.59Z" stroke="white" stroke-opacity="0.06" stroke-width="0.238095"/>
<path d="M865.715 383.59H817.619V431.655H865.715V383.59Z" stroke="white" stroke-opacity="0.06" stroke-width="0.238095"/>
<path d="M913.811 383.59H865.715V431.655H913.811V383.59Z" stroke="white" stroke-opacity="0.06" stroke-width="0.238095"/>
<path d="M961.903 383.59H913.808V431.655H961.903V383.59Z" stroke="white" stroke-opacity="0.06" stroke-width="0.238095"/>
<path d="M1010 383.59H961.904V431.655H1010V383.59Z" stroke="white" stroke-opacity="0.06" stroke-width="0.238095"/>
<path d="M48.0954 431.656H0V479.722H48.0954V431.656Z" stroke="white" stroke-opacity="0.06" stroke-width="0.238095"/>
<path d="M96.1907 431.656H48.0953V479.722H96.1907V431.656Z" stroke="white" stroke-opacity="0.06" stroke-width="0.238095"/>
<path d="M144.286 431.656H96.1908V479.722H144.286V431.656Z" stroke="white" stroke-opacity="0.06" stroke-width="0.238095"/>
<path d="M192.381 431.656H144.285V479.722H192.381V431.656Z" stroke="white" stroke-opacity="0.06" stroke-width="0.238095"/>
<path d="M240.476 431.656H192.381V479.722H240.476V431.656Z" stroke="white" stroke-opacity="0.06" stroke-width="0.238095"/>
<path d="M288.572 431.656H240.476V479.722H288.572V431.656Z" stroke="white" stroke-opacity="0.06" stroke-width="0.238095"/>
<path d="M336.667 431.656H288.572V479.722H336.667V431.656Z" stroke="white" stroke-opacity="0.06" stroke-width="0.238095"/>
<path d="M384.762 431.656H336.667V479.722H384.762V431.656Z" stroke="white" stroke-opacity="0.06" stroke-width="0.238095"/>
<path d="M432.857 431.656H384.761V479.722H432.857V431.656Z" stroke="white" stroke-opacity="0.06" stroke-width="0.238095"/>
<path d="M480.953 431.656H432.858V479.722H480.953V431.656Z" stroke="white" stroke-opacity="0.06" stroke-width="0.238095"/>
<path d="M529.049 431.656H480.954V479.722H529.049V431.656Z" stroke="white" stroke-opacity="0.06" stroke-width="0.238095"/>
<path d="M577.141 431.656H529.046V479.722H577.141V431.656Z" stroke="white" stroke-opacity="0.06" stroke-width="0.238095"/>
<path d="M625.238 431.656H577.142V479.722H625.238V431.656Z" stroke="white" stroke-opacity="0.06" stroke-width="0.238095"/>
<path d="M673.334 431.656H625.238V479.722H673.334V431.656Z" stroke="white" stroke-opacity="0.06" stroke-width="0.238095"/>
<path d="M721.43 431.656H673.335V479.722H721.43V431.656Z" stroke="white" stroke-opacity="0.06" stroke-width="0.238095"/>
<path d="M769.522 431.656H721.427V479.722H769.522V431.656Z" stroke="white" stroke-opacity="0.06" stroke-width="0.238095"/>
<path d="M817.618 431.656H769.523V479.722H817.618V431.656Z" stroke="white" stroke-opacity="0.06" stroke-width="0.238095"/>
<path d="M865.715 431.656H817.619V479.722H865.715V431.656Z" stroke="white" stroke-opacity="0.06" stroke-width="0.238095"/>
<path d="M913.811 431.656H865.715V479.722H913.811V431.656Z" stroke="white" stroke-opacity="0.06" stroke-width="0.238095"/>
<path d="M961.903 431.656H913.808V479.722H961.903V431.656Z" stroke="white" stroke-opacity="0.06" stroke-width="0.238095"/>
<path d="M1010 431.656H961.904V479.722H1010V431.656Z" stroke="white" stroke-opacity="0.06" stroke-width="0.238095"/>
<path d="M48.0954 479.719H0V527.784H48.0954V479.719Z" stroke="white" stroke-opacity="0.06" stroke-width="0.238095"/>
<path d="M96.1907 479.719H48.0953V527.784H96.1907V479.719Z" stroke="white" stroke-opacity="0.06" stroke-width="0.238095"/>
<path d="M144.286 479.719H96.1908V527.784H144.286V479.719Z" stroke="white" stroke-opacity="0.06" stroke-width="0.238095"/>
<path d="M192.381 479.719H144.285V527.784H192.381V479.719Z" stroke="white" stroke-opacity="0.06" stroke-width="0.238095"/>
<path d="M240.476 479.719H192.381V527.784H240.476V479.719Z" stroke="white" stroke-opacity="0.06" stroke-width="0.238095"/>
<path d="M288.572 479.719H240.476V527.784H288.572V479.719Z" stroke="white" stroke-opacity="0.06" stroke-width="0.238095"/>
<path d="M336.667 479.719H288.572V527.784H336.667V479.719Z" stroke="white" stroke-opacity="0.06" stroke-width="0.238095"/>
<path d="M384.762 479.719H336.667V527.784H384.762V479.719Z" stroke="white" stroke-opacity="0.06" stroke-width="0.238095"/>
<path d="M432.857 479.719H384.761V527.784H432.857V479.719Z" stroke="white" stroke-opacity="0.06" stroke-width="0.238095"/>
<path d="M480.953 479.719H432.858V527.784H480.953V479.719Z" stroke="white" stroke-opacity="0.06" stroke-width="0.238095"/>
<path d="M529.049 479.719H480.954V527.784H529.049V479.719Z" stroke="white" stroke-opacity="0.06" stroke-width="0.238095"/>
<path d="M577.141 479.719H529.046V527.784H577.141V479.719Z" stroke="white" stroke-opacity="0.06" stroke-width="0.238095"/>
<path d="M625.238 479.719H577.142V527.784H625.238V479.719Z" stroke="white" stroke-opacity="0.06" stroke-width="0.238095"/>
<path d="M673.334 479.719H625.238V527.784H673.334V479.719Z" stroke="white" stroke-opacity="0.06" stroke-width="0.238095"/>
<path d="M721.43 479.719H673.335V527.784H721.43V479.719Z" stroke="white" stroke-opacity="0.06" stroke-width="0.238095"/>
<path d="M769.522 479.719H721.427V527.784H769.522V479.719Z" stroke="white" stroke-opacity="0.06" stroke-width="0.238095"/>
<path d="M817.618 479.719H769.523V527.784H817.618V479.719Z" stroke="white" stroke-opacity="0.06" stroke-width="0.238095"/>
<path d="M865.715 479.719H817.619V527.784H865.715V479.719Z" stroke="white" stroke-opacity="0.06" stroke-width="0.238095"/>
<path d="M913.811 479.719H865.715V527.784H913.811V479.719Z" stroke="white" stroke-opacity="0.06" stroke-width="0.238095"/>
<path d="M961.903 479.719H913.808V527.784H961.903V479.719Z" stroke="white" stroke-opacity="0.06" stroke-width="0.238095"/>
<path d="M1010 479.719H961.904V527.784H1010V479.719Z" stroke="white" stroke-opacity="0.06" stroke-width="0.238095"/>
<path d="M48.0954 527.785H0V575.851H48.0954V527.785Z" stroke="white" stroke-opacity="0.06" stroke-width="0.238095"/>
<path d="M96.1907 527.785H48.0953V575.851H96.1907V527.785Z" stroke="white" stroke-opacity="0.06" stroke-width="0.238095"/>
<path d="M144.286 527.785H96.1908V575.851H144.286V527.785Z" stroke="white" stroke-opacity="0.06" stroke-width="0.238095"/>
<path d="M192.381 527.785H144.285V575.851H192.381V527.785Z" stroke="white" stroke-opacity="0.06" stroke-width="0.238095"/>
<path d="M240.476 527.785H192.381V575.851H240.476V527.785Z" stroke="white" stroke-opacity="0.06" stroke-width="0.238095"/>
<path d="M288.572 527.785H240.476V575.851H288.572V527.785Z" stroke="white" stroke-opacity="0.06" stroke-width="0.238095"/>
<path d="M336.667 527.785H288.572V575.851H336.667V527.785Z" stroke="white" stroke-opacity="0.06" stroke-width="0.238095"/>
<path d="M384.762 527.785H336.667V575.851H384.762V527.785Z" stroke="white" stroke-opacity="0.06" stroke-width="0.238095"/>
<path d="M432.857 527.785H384.761V575.851H432.857V527.785Z" stroke="white" stroke-opacity="0.06" stroke-width="0.238095"/>
<path d="M480.953 527.785H432.858V575.851H480.953V527.785Z" stroke="white" stroke-opacity="0.06" stroke-width="0.238095"/>
<path d="M529.049 527.785H480.954V575.851H529.049V527.785Z" stroke="white" stroke-opacity="0.06" stroke-width="0.238095"/>
<path d="M577.141 527.785H529.046V575.851H577.141V527.785Z" stroke="white" stroke-opacity="0.06" stroke-width="0.238095"/>
<path d="M625.238 527.785H577.142V575.851H625.238V527.785Z" stroke="white" stroke-opacity="0.06" stroke-width="0.238095"/>
<path d="M673.334 527.785H625.238V575.851H673.334V527.785Z" stroke="white" stroke-opacity="0.06" stroke-width="0.238095"/>
<path d="M721.43 527.785H673.335V575.851H721.43V527.785Z" stroke="white" stroke-opacity="0.06" stroke-width="0.238095"/>
<path d="M769.522 527.785H721.427V575.851H769.522V527.785Z" stroke="white" stroke-opacity="0.06" stroke-width="0.238095"/>
<path d="M817.618 527.785H769.523V575.851H817.618V527.785Z" stroke="white" stroke-opacity="0.06" stroke-width="0.238095"/>
<path d="M865.715 527.785H817.619V575.851H865.715V527.785Z" stroke="white" stroke-opacity="0.06" stroke-width="0.238095"/>
<path d="M913.811 527.785H865.715V575.851H913.811V527.785Z" stroke="white" stroke-opacity="0.06" stroke-width="0.238095"/>
<path d="M961.903 527.785H913.808V575.851H961.903V527.785Z" stroke="white" stroke-opacity="0.06" stroke-width="0.238095"/>
<path d="M1010 527.785H961.904V575.851H1010V527.785Z" stroke="white" stroke-opacity="0.06" stroke-width="0.238095"/>
</g>
</g>
<defs>
<clipPath id="clip0_49_2">
<rect width="1010" height="646" fill="white"/>
</clipPath>
</defs>
</svg>
